# xmcd CD database file
#
# Track frame offsets:
#	182
#	9112
#	20217
#	34717
#	49392
#	61977
#	77645
#	89817
#	99025
#	110345
#	132267
#	141340
#	157587
#	168212
#	178862
#	195517
#	209932
#
# Disc length: 2955 seconds
#
# Revision: 4
# Processed by: cddbd v1.5.2PL0 Copyright (c) Steve Scherf et al.
# Submitted via: jetAudio 7
#
DISCID=e20b8911
DTITLE=Various Artist - Country Music's Greatest Hits Disc 5
DYEAR=1997
DGENRE=Country
TTITLE0=Jambalaya [On The Bayou]
TTITLE1=Tennessee Waltz
TTITLE2=Cool Water
TTITLE3=Do Not Forsake Me (From ''High Noon'')
TTITLE4=I Can't Stop Loving You
TTITLE5=Release Me
TTITLE6=Tumbling Tumbleweeds
TTITLE7=Freight Train
TTITLE8=Hey, Good Lookin'
TTITLE9=City Of New Orleans
TTITLE10=Ramblin' Rose
TTITLE11=Green, Green Grass Of Home
TTITLE12=San Antonio Rose
TTITLE13=Cold, Cold Heart
TTITLE14=Streets Of Loredo
TTITLE15=Half A Mind
TTITLE16=Lovesick Blues
EXTD=
EXTT0=
EXTT1=
EXTT2=
EXTT3=
EXTT4=
EXTT5=
EXTT6=
EXTT7=
EXTT8=
EXTT9=
EXTT10=
EXTT11=
EXTT12=
EXTT13=
EXTT14=
EXTT15=
EXTT16=
PLAYORDER=
